<svg width="261" height="57" viewBox="0 0 261 57" fill="none" xmlns="http://www.w3.org/2000/svg">
<g clip-path="url(#clip0_2155_38)">
<path d="M78.7243 5.61733V41.7746C78.7294 42.9686 79.2066 44.1121 80.0518 44.9555C80.897 45.7989 82.0415 46.2737 83.2356 46.2762C83.7186 46.2794 84.1988 46.2016 84.6561 46.0459L84.5409 46.1035C81.431 47.4761 72.1974 48.6759 67.6669 44.3182C67.4294 44.033 67.2442 43.708 67.1198 43.3583C66.9034 42.3002 66.7941 41.2229 66.7935 40.1429V5.58853C66.7935 2.94897 69.7786 0.443779 72.7541 0.443779C75.7296 0.443779 78.7243 2.94897 78.7243 5.61733Z" fill="#FCFFFA"/>
<path d="M99.62 41.1219V5.60772C99.62 2.91057 96.5773 0.405378 93.5634 0.443772C90.5495 0.482166 87.7371 2.98735 87.7371 5.61732V41.9474C87.7371 47.9848 80.2887 52.4288 69.0586 48.4263C70.8387 51.4637 73.5477 53.8486 76.7861 55.2294C80.0246 56.6103 83.6211 56.9139 87.0452 56.0955C90.4693 55.2771 93.5398 53.38 95.8039 50.6841C98.0679 47.9881 99.4057 44.6359 99.62 41.1219Z" fill="#FCFFFA"/>
<path d="M0.333664 50.8259V50.6627C0.324403 49.475 0.69069 48.3148 1.38021 47.3478C2.06973 46.3807 3.04721 45.6563 4.17303 45.278L17.1021 40.6419L6.28469 35.4588C3.10761 33.9326 1.11114 31.6194 1.11114 28.5095C1.11114 25.3996 3.19399 23.2976 6.28469 21.5603L12.6484 17.9513C18.1579 19.0359 24.1665 23.096 25.9423 25.5052L17.5532 28.5095L30.6263 33.2032C31.6803 33.581 32.5919 34.2753 33.2362 35.1911C33.8805 36.1069 34.2261 37.1994 34.2257 38.3191V44.7693C34.2258 45.7101 33.9355 46.628 33.3943 47.3977C32.8531 48.1673 32.0876 48.7511 31.2022 49.0694L7.98361 56.2106C7.12028 56.5176 6.19617 56.6142 5.28802 56.4923C4.37987 56.3704 3.51391 56.0336 2.76206 55.5099C2.00211 54.9902 1.38262 54.2906 0.958885 53.4732C0.535151 52.6559 0.320355 51.7464 0.333664 50.8259ZM3.39556 11.4723C0.525632 10.4453 -0.827745 6.26038 0.573624 3.49604C1.97499 0.731692 5.29605 -0.0265838 8.16598 0.856471L30.6263 7.74814C31.6803 8.12304 32.5924 8.81529 33.2369 9.7297C33.8815 10.6441 34.2269 11.7358 34.2257 12.8545V19.3142C34.2252 20.2538 33.9345 21.1702 33.3933 21.9382C32.8521 22.7062 32.0868 23.2883 31.2022 23.6047L25.9998 25.4764C24.9536 23.1056 21.5366 17.9033 11.6022 14.3806L3.40516 11.5011L3.39556 11.4723Z" fill="#FCFFFA"/>
<path d="M114.411 12.3074H114.238V13.6223H114.536C115.793 13.6223 116.456 14.1311 116.456 15.1005C116.456 16.0699 115.937 16.5307 114.901 16.5403C113.864 16.5499 113.279 16.022 113.279 14.9277H111.359C111.244 17.0714 112.402 18.1432 114.834 18.1432C117.262 18.1432 118.471 17.0778 118.471 15.0141C118.514 14.5163 118.384 14.0191 118.102 13.6064C117.82 13.1936 117.405 12.8908 116.926 12.7489C117.302 12.5958 117.619 12.3275 117.833 11.9826C118.047 11.6377 118.146 11.2339 118.116 10.8292C118.116 9.0535 116.993 8.18964 114.901 8.20884C113.173 8.20884 112.108 8.89033 111.695 10.2725C111.512 10.9636 111.752 11.3091 112.424 11.2899H113.442C113.442 10.2629 113.95 9.74459 114.834 9.74459C115.717 9.74459 116.129 10.1573 116.12 10.9636C116.12 11.9234 115.496 12.2978 114.43 12.2978L114.411 12.3074Z" fill="#FCFFFA"/>
<path d="M122.704 8.37208C122.495 8.34761 122.284 8.39775 122.109 8.51366C121.933 8.62957 121.804 8.80379 121.744 9.00558L118.529 17.9993H120.64L121.284 16.0316H125.008L125.641 17.9993H127.724L124.269 8.40088L122.704 8.37208ZM123.146 10.2918L124.47 14.3807H121.821L123.146 10.2918Z" fill="#FCFFFA"/>
<path d="M134.894 8.37205C134.716 8.35978 134.539 8.40074 134.386 8.48966C134.232 8.57858 134.108 8.71142 134.03 8.87117L132.341 11.7507L130.421 8.36245H128.146L131.16 13.0657L128.146 17.9897H130.421L132.341 14.6494L134.26 17.9897H136.554L133.54 13.0657L136.554 8.36245L134.894 8.37205Z" fill="#FCFFFA"/>
<path d="M137.745 17.9993H139.664V8.40085H138.704C138.042 8.40085 137.745 8.75599 137.745 9.43748V18.0761V17.9993Z" fill="#FCFFFA"/>
<path d="M141.325 16.3484H140.73V19.8038H142.707V17.9993H147.833V19.8038H149.829V16.3484H149.081V9.56227C149.081 8.7656 148.668 8.37206 147.833 8.37206H142.688C142.688 11.9139 142.525 13.9391 141.306 16.3484H141.325ZM144.675 10.0422H147.113V16.3484H143.408C144.368 14.803 144.675 12.7201 144.675 10.0422Z" fill="#FCFFFA"/>
<path d="M151.116 9.40869V18.0473H153.122V13.7376H157.067V17.9993H159.063V8.40086H157.067V11.9619H153.122V8.37206H152.162C151.9 8.38924 151.654 8.50629 151.475 8.69913C151.297 8.89196 151.199 9.14591 151.202 9.40869H151.116Z" fill="#FCFFFA"/>
<path d="M164.553 9.92699C166.348 9.92699 167.202 11.29 167.202 13.1905C167.202 15.0909 166.348 16.4827 164.553 16.4827C162.758 16.4827 161.913 15.0717 161.913 13.1905C161.913 11.3092 162.749 9.92699 164.553 9.92699ZM164.553 18.1432C167.481 18.1432 169.17 16.1468 169.17 13.1905C169.17 10.2341 167.423 8.21848 164.553 8.21848C161.683 8.21848 159.946 10.2437 159.946 13.1905C159.946 16.1372 161.616 18.1432 164.553 18.1432Z" fill="#FCFFFA"/>
<path d="M170.686 16.5595V18.0281C170.94 18.0932 171.203 18.1127 171.464 18.0857C172.961 18.0857 173.441 17.6921 173.873 16.5115L177.588 8.37205H176.273C176.079 8.3481 175.884 8.39666 175.725 8.50835C175.565 8.62005 175.453 8.78694 175.409 8.97675L173.393 13.4976L171.282 8.37205H169.141L172.28 15.1869C172.568 16.1468 172.203 16.5595 171.205 16.5595H170.686Z" fill="#FCFFFA"/>
<path d="M184.384 8.37206C184.138 8.35501 183.892 8.39074 183.662 8.47684C183.432 8.56294 183.223 8.69741 183.049 8.87118L180.256 12.3074V9.53347C180.278 9.37336 180.261 9.21044 180.209 9.05773C180.156 8.90502 180.068 8.76673 179.953 8.65391C179.837 8.54109 179.697 8.45685 179.543 8.40791C179.389 8.35898 179.226 8.3467 179.066 8.37206H178.289V17.9705H180.256V14.1311C180.256 13.9008 180.304 13.7568 180.419 13.6992C180.535 13.6416 180.794 13.7568 180.986 14.0447L183.942 18.0185H186.332L182.387 12.5474L184.153 10.3397C184.422 10.1183 184.766 10.0114 185.113 10.0422H185.756V8.37206H184.384Z" fill="#FCFFFA"/>
<path d="M194.577 11.4723C194.63 11.0525 194.587 10.6262 194.45 10.2258C194.313 9.82546 194.086 9.46177 193.787 9.16256C193.487 8.86335 193.124 8.63656 192.723 8.49954C192.323 8.36253 191.897 8.31891 191.477 8.37204H188.213C187.951 8.38922 187.705 8.50627 187.527 8.69911C187.348 8.89194 187.25 9.14589 187.253 9.40867V18.0473H189.221V14.5726H191.659C193.579 14.5726 194.615 13.3728 194.615 11.4723H194.577ZM189.212 12.8353V10.0422H191.227C191.417 10.0161 191.609 10.0346 191.79 10.0961C191.971 10.1576 192.135 10.2605 192.269 10.3966C192.404 10.5326 192.504 10.6981 192.563 10.8798C192.622 11.0616 192.638 11.2546 192.609 11.4435C192.609 12.4034 192.12 12.8449 191.122 12.8353H189.212Z" fill="#FCFFFA"/>
<path d="M198.445 8.37208C198.236 8.34761 198.025 8.39775 197.849 8.51366C197.674 8.62957 197.545 8.80379 197.485 9.00558L194.279 17.9993H196.381L197.024 16.0316H200.749L201.382 17.9993H203.503L200.048 8.40088L198.445 8.37208ZM198.887 10.2918L200.211 14.3807H197.562L198.887 10.2918Z" fill="#FCFFFA"/>
<path d="M204.598 17.9993H206.565V8.40087H205.605C204.943 8.40087 204.646 8.75602 204.646 9.4375V18.0761L204.598 17.9993ZM207.477 6.48119C207.486 6.41772 207.481 6.35302 207.461 6.29199C207.441 6.23097 207.408 6.17521 207.364 6.12896C207.319 6.08271 207.265 6.04718 207.205 6.02505C207.145 6.00293 207.08 5.9948 207.016 6.00127H206.229V7.24906H207.477V6.48119ZM204.972 6.48119C204.98 6.41631 204.973 6.35052 204.951 6.28878C204.93 6.22704 204.895 6.17096 204.848 6.12475C204.802 6.07855 204.746 6.04343 204.684 6.02204C204.623 6.00065 204.557 5.99355 204.492 6.00127H203.724V7.24906H204.972V6.48119Z" fill="#FCFFFA"/>
<path d="M208.226 9.40869V18.0473H210.223V13.7376H214.168V17.9993H216.164V8.40086H214.168V11.9619H210.223V8.37206H209.263C209 8.38924 208.755 8.50629 208.576 8.69913C208.398 8.89196 208.3 9.14591 208.303 9.40869H208.226Z" fill="#FCFFFA"/>
<path d="M225.666 14.659H223.747C223.679 15.1698 223.419 15.6355 223.019 15.9604C222.619 16.2853 222.11 16.4447 221.597 16.4059C219.802 16.4059 219.024 15.0718 219.024 13.1905C219.024 11.3092 219.83 9.9558 221.654 9.9558C222.043 9.91415 222.434 9.99199 222.777 10.1789C223.12 10.3659 223.398 10.653 223.574 11.002C223.652 11.1882 223.787 11.3449 223.959 11.45C224.131 11.5551 224.332 11.6033 224.534 11.5875H225.724C225.654 10.627 225.218 9.73007 224.505 9.08234C223.679 8.45852 222.658 8.14889 221.625 8.20889C218.583 8.20889 217.018 10.071 217.018 13.1809C217.018 16.2908 218.496 18.1337 221.453 18.1337C223.891 18.1337 225.445 16.8763 225.637 14.6494L225.666 14.659Z" fill="#FCFFFA"/>
<path d="M228.459 16.262H229.995C230.955 16.214 231.444 15.7916 231.444 14.9566C231.444 14.1215 230.964 13.728 229.995 13.7376H228.459V16.262ZM226.54 8.37206H227.403C228.133 8.37206 228.488 8.7272 228.488 9.40869V11.9619H229.976C232.363 11.9619 233.559 12.9761 233.566 15.0046C233.572 17.033 232.375 18.0473 229.976 18.0473H226.54V8.44885V8.37206Z" fill="#FCFFFA"/>
<path d="M240.544 8.37206C240.299 8.35501 240.053 8.39074 239.823 8.47684C239.593 8.56294 239.384 8.69741 239.21 8.87118L236.417 12.3074V9.53347C236.438 9.37336 236.422 9.21044 236.369 9.05773C236.317 8.90502 236.229 8.76673 236.113 8.65391C235.998 8.54109 235.857 8.45685 235.703 8.40791C235.549 8.35898 235.386 8.3467 235.227 8.37206H234.449V17.9705H236.369V14.1311C236.369 13.9008 236.417 13.7568 236.532 13.6992C236.647 13.6416 236.906 13.7568 237.098 14.0447L240.055 18.0185H242.445L238.5 12.5666L240.266 10.3589C240.534 10.1375 240.879 10.0306 241.226 10.0614H241.898V8.37206H240.544Z" fill="#FCFFFA"/>
<path d="M251.285 9.40868V18.0473H249.365V11.386L245.43 17.9993H243.385V8.40085H245.305V15.0142L249.24 8.40085H250.287C250.549 8.41802 250.794 8.53508 250.973 8.72791C251.152 8.92075 251.249 9.17469 251.246 9.43748L251.285 9.40868Z" fill="#FCFFFA"/>
<path d="M260.326 9.40869V18.0473H258.407V11.386L254.471 17.9993H252.456V8.40085H254.375V15.0142L258.32 8.40085H259.366C259.499 8.40043 259.631 8.42755 259.752 8.48052C259.874 8.53348 259.984 8.61114 260.074 8.70856C260.164 8.80599 260.233 8.92108 260.276 9.04654C260.32 9.17201 260.337 9.30513 260.326 9.43748V9.40869ZM257.255 6.20281C257.273 6.326 257.262 6.45183 257.223 6.56994C257.183 6.68806 257.116 6.79509 257.027 6.88224C256.938 6.96938 256.83 7.03415 256.711 7.07122C256.592 7.10829 256.466 7.1166 256.343 7.09547C255.777 7.03787 255.498 6.74032 255.537 6.20281H254.721C254.721 7.24904 255.258 7.78655 256.401 7.79615C257.543 7.80575 258.128 7.24904 258.09 6.20281H257.255Z" fill="#FCFFFA"/>
<path d="M111.483 24.1423V32.7808H113.48V28.4807H117.434V32.7424H119.431V23.144H117.434V26.7338H113.48V23.1152H112.52C112.259 23.13 112.013 23.245 111.834 23.4363C111.655 23.6276 111.557 23.8804 111.56 24.1423H111.483Z" fill="#FCFFFA"/>
<path d="M124.326 23.1152C124.117 23.0908 123.906 23.1409 123.731 23.2568C123.555 23.3727 123.426 23.5469 123.366 23.7487L120.151 32.7425H122.263L122.906 30.8228H126.63L127.263 32.7425H129.346L125.891 23.144L124.326 23.1152ZM124.768 25.0349L126.092 29.1238H123.443L124.797 25.0541L124.768 25.0349Z" fill="#FCFFFA"/>
<path d="M139.098 30.9763V35.1228H137.102V32.7424H130.239V23.144H132.226V31.0051H136.161V23.1152H136.958C137.111 23.0953 137.267 23.1094 137.415 23.1565C137.563 23.2037 137.698 23.2828 137.812 23.3881C137.925 23.4935 138.014 23.6225 138.072 23.7661C138.13 23.9097 138.156 24.0643 138.148 24.219V30.9379L139.098 30.9763Z" fill="#FCFFFA"/>
<path d="M140.231 32.7424H142.151V23.144H141.191C140.529 23.144 140.231 23.4895 140.231 24.171V32.8096V32.7424Z" fill="#FCFFFA"/>
<path d="M147.938 24.6702C149.743 24.6702 150.588 26.0332 150.588 27.9241C150.588 29.8149 149.743 31.2259 147.938 31.2259C146.134 31.2259 145.308 29.8149 145.308 27.9241C145.308 26.0332 146.144 24.6702 147.938 24.6702ZM147.938 32.8864C150.876 32.8864 152.555 30.89 152.555 27.9241C152.555 24.9581 150.818 22.9521 147.938 22.9521C145.059 22.9521 143.341 24.9773 143.341 27.9241C143.341 30.8708 145.011 32.8864 147.938 32.8864Z" fill="#FCFFFA"/>
<path d="M153.697 24.1423V32.7808H155.694V28.4807H159.639V32.7424H161.635V23.144H159.639V26.7338H155.694V23.1152H154.686C154.424 23.13 154.179 23.245 154 23.4363C153.821 23.6276 153.723 23.8804 153.726 24.1423H153.697Z" fill="#FCFFFA"/>
<path d="M166.924 23.1152C166.715 23.0888 166.503 23.1381 166.327 23.2543C166.151 23.3705 166.022 23.5459 165.964 23.7487L162.749 32.7424H164.86L165.494 30.8228H169.218L169.861 32.7424H171.934L168.479 23.144L166.924 23.1152ZM167.365 25.0349L168.7 29.1238H166.07L167.385 25.0349H167.365Z" fill="#FCFFFA"/>
<path d="M175.774 24.7853H178.653V32.7424H180.573V24.219C180.573 23.48 180.199 23.1152 179.412 23.1152H173.835V31.0819H172.875V32.7424H174.584C174.739 32.7671 174.899 32.7565 175.05 32.7115C175.201 32.6664 175.34 32.5881 175.457 32.4822C175.574 32.3763 175.666 32.2456 175.726 32.0996C175.785 31.9536 175.812 31.7961 175.803 31.6386V24.7853H175.774Z" fill="#FCFFFA"/>
<path d="M183.798 30.9955H185.343C186.303 30.9955 186.783 30.5348 186.783 29.6997C186.783 28.8647 186.303 28.4615 185.343 28.4807H183.798V30.9955ZM181.878 23.1152H182.742C183.462 23.1152 183.817 23.4608 183.817 24.1422V26.657H185.266C187.656 26.657 188.866 27.6745 188.866 29.6997C188.866 31.725 187.656 32.7424 185.266 32.7424H181.84V23.144L181.878 23.1152Z" fill="#FCFFFA"/>
<path d="M190.066 24.1423V32.7808H191.986V28.4807H195.94V32.7424H197.937V23.144H195.94V26.7338H191.986V23.1152H191.026C190.764 23.13 190.519 23.245 190.34 23.4363C190.161 23.6276 190.063 23.8804 190.066 24.1423Z" fill="#FCFFFA"/>
<path d="M207.131 24.1422V32.7808H205.212V26.1291L201.267 32.7424H199.232V23.144H201.152V29.7573L205.087 23.144H206.133C206.395 23.1588 206.64 23.2738 206.819 23.4651C206.998 23.6564 207.096 23.9092 207.093 24.171L207.131 24.1422Z" fill="#FCFFFA"/>
<path d="M216.433 24.1423V32.7808H214.513V26.1291L210.568 32.7425H208.533V23.144H210.453V29.7573L214.388 23.144H215.434C215.566 23.1437 215.697 23.1706 215.818 23.223C215.939 23.2753 216.048 23.3521 216.138 23.4485C216.228 23.5449 216.297 23.6588 216.341 23.7831C216.386 23.9074 216.404 24.0395 216.394 24.1711L216.433 24.1423ZM213.39 20.9268C213.39 21.5411 213.092 21.8386 212.488 21.8194C211.883 21.8003 211.633 21.4643 211.672 20.9268H210.856C210.856 21.9826 211.394 22.5201 212.536 22.5297C213.678 22.5393 214.263 21.9826 214.225 20.9268H213.39Z" fill="#FCFFFA"/>
<path d="M113.278 46.0363V47.476C113.533 47.5349 113.795 47.5543 114.056 47.5336C115.563 47.5336 116.043 47.1305 116.465 45.9595L120.16 37.8776H118.845C118.651 37.854 118.454 37.9039 118.295 38.0175C118.135 38.1312 118.023 38.3003 117.982 38.4919L115.975 43.0032L113.864 37.8776H111.762L114.91 44.6925C115.188 45.6523 114.824 46.0651 113.835 46.0651L113.278 46.0363Z" fill="#FCFFFA"/>
<path d="M120.679 38.8854V47.524H122.685V43.2239H126.63V47.476H128.636V37.8776H126.639V41.477H122.685V37.8776H121.725C121.463 37.8948 121.217 38.0118 121.038 38.2047C120.86 38.3975 120.762 38.6514 120.765 38.9142L120.679 38.8854Z" fill="#FCFFFA"/>
<path d="M130.057 47.476H132.024V37.8776H131.064C130.402 37.8776 130.105 38.2327 130.105 38.9142V47.5528L130.057 47.476Z" fill="#FCFFFA"/>
<path d="M141.479 44.5965C141.529 44.1028 141.406 43.6069 141.131 43.1937C140.857 42.7804 140.447 42.4756 139.972 42.3313C140.353 42.1542 140.669 41.8612 140.874 41.4941C141.079 41.127 141.163 40.7045 141.114 40.2868C141.114 38.5783 139.914 37.8488 138.1 37.8488H134.558C134.295 37.8637 134.048 37.98 133.869 38.1734C133.69 38.3667 133.593 38.622 133.598 38.8854V47.524H137.975C140.058 47.524 141.488 46.5642 141.488 44.5869L141.479 44.5965ZM139.194 40.546C139.194 41.3522 138.551 41.5922 137.774 41.5922H135.624V39.5189H137.745C138.638 39.5189 139.194 39.7397 139.194 40.546ZM139.434 44.4909C139.434 45.4508 138.839 45.7387 137.86 45.7387H135.624V43.2239H137.831C138.849 43.2239 139.434 43.5023 139.434 44.4909Z" fill="#FCFFFA"/>
<path d="M142.515 47.476H149.484V45.7099H144.454V43.2239H147.19C147.881 43.2239 148.226 42.8976 148.207 42.2641V41.6306H144.454V39.5189H149.484V37.8776H143.504C143.371 37.8772 143.24 37.9043 143.118 37.9573C142.996 38.0102 142.887 38.0879 142.796 38.1853C142.706 38.2827 142.637 38.3978 142.594 38.5233C142.55 38.6488 142.533 38.7819 142.544 38.9142V47.5528L142.515 47.476Z" fill="#FCFFFA"/>
<path d="M157.883 40.9491C157.931 40.5316 157.884 40.1085 157.745 39.7118C157.605 39.3152 157.378 38.9553 157.079 38.6595C156.781 38.3636 156.419 38.1395 156.021 38.0041C155.623 37.8686 155.199 37.8254 154.782 37.8776H151.509C151.247 37.8948 151.001 38.0119 150.823 38.2047C150.644 38.3975 150.546 38.6515 150.549 38.9143V47.5528H152.469V44.059H154.907C156.827 44.059 157.863 42.8496 157.863 40.9491H157.883ZM152.517 42.3121V39.519H154.552C154.742 39.4946 154.935 39.5146 155.115 39.5773C155.296 39.6401 155.46 39.7439 155.594 39.8806C155.728 40.0173 155.828 40.1833 155.887 40.3653C155.946 40.5474 155.962 40.7406 155.934 40.9299C155.934 41.8898 155.445 42.3313 154.446 42.3121H152.517Z" fill="#FCFFFA"/>
<path d="M167.538 44.1358H165.619C165.551 44.6484 165.29 45.1155 164.888 45.4406C164.486 45.7658 163.974 45.924 163.459 45.8827C161.664 45.8827 160.887 44.5485 160.887 42.6672C160.887 40.7859 161.693 39.4422 163.517 39.4422C163.905 39.4005 164.297 39.4784 164.64 39.6653C164.983 39.8522 165.261 40.1394 165.436 40.4884C165.516 40.6727 165.651 40.8274 165.824 40.9307C165.996 41.0341 166.196 41.0808 166.396 41.0643H167.586C167.54 40.1156 167.123 39.223 166.425 38.5783C165.602 37.9488 164.58 37.6354 163.545 37.6953C160.503 37.6953 158.948 39.5669 158.948 42.6672C158.948 45.7675 160.416 47.62 163.382 47.62C165.811 47.62 167.375 46.3626 167.558 44.1358H167.538Z" fill="#FCFFFA"/>
<path d="M176.484 38.8854V47.524H174.565V40.8723L170.62 47.476H168.575V37.8776H170.495V44.4909L174.43 37.8776H175.476C175.739 37.8948 175.984 38.0118 176.163 38.2047C176.341 38.3975 176.439 38.6514 176.436 38.9142L176.484 38.8854Z" fill="#FCFFFA"/>
<path d="M177.521 38.8854V39.5669H180.4V47.476H182.387V39.5669H185.266V37.8776H178.548C178.285 37.8948 178.04 38.0118 177.861 38.2047C177.683 38.3975 177.585 38.6514 177.588 38.9142L177.521 38.8854Z" fill="#FCFFFA"/>
<path d="M186.227 47.476H193.195V45.7099H188.146V43.2239H190.872C191.573 43.2239 191.909 42.8976 191.899 42.2641V41.6306H188.146V39.5189H193.166V37.8776H187.187C187.054 37.8772 186.922 37.9043 186.801 37.9573C186.679 38.0102 186.569 38.0879 186.479 38.1853C186.389 38.2827 186.32 38.3978 186.276 38.5233C186.233 38.6488 186.216 38.7819 186.227 38.9142V47.5528V47.476Z" fill="#FCFFFA"/>
<path d="M194.231 38.8854V39.5669H197.111V47.476H199.031V39.5669H201.91V37.8776H195.239C194.976 37.8925 194.729 38.0088 194.55 38.2022C194.371 38.3955 194.274 38.6508 194.279 38.9142L194.231 38.8854Z" fill="#FCFFFA"/>
<path fill-rule="evenodd" clip-rule="evenodd" d="M44.6401 32.9824H56.7437V53.6094H44.6401V32.9824Z" fill="#FCFFFA"/>
<path fill-rule="evenodd" clip-rule="evenodd" d="M44.6401 3.40003H56.7437V24.027H44.6401V3.40003Z" fill="#FCFFFA"/>
</g>
<defs>
<clipPath id="clip0_2155_38">
<rect width="260.343" height="56.1124" fill="white" transform="translate(0 0.44381)"/>
</clipPath>
</defs>
</svg>
