<svg width="235" height="61" viewBox="0 0 235 61" fill="none" xmlns="http://www.w3.org/2000/svg">
<g clip-path="url(#clip0_2155_86)">
<path d="M22.6029 38.2886C22.6794 37.9579 22.756 37.64 22.8197 37.3094C23.0238 36.3302 23.1004 35.3384 23.3683 34.3719C23.3959 34.2044 23.4662 34.0468 23.5724 33.9141C23.6791 33.807 23.8064 33.7224 23.9467 33.6656C24.087 33.6088 24.2374 33.5809 24.3888 33.5835C24.6794 33.5263 24.9784 33.5263 25.269 33.5835C26.3916 33.9396 26.0855 35.4401 26.0089 36.3175C25.8904 37.7159 25.6034 39.0949 25.1542 40.4249C25.085 40.7337 24.9485 41.0236 24.7545 41.2741C24.5606 41.5246 24.3138 41.7296 24.0316 41.8746C23.7304 42.0254 23.3814 42.0512 23.0611 41.9464C22.7408 41.8415 22.4752 41.6145 22.3222 41.315C22.2326 41.0229 22.2065 40.7151 22.2457 40.4122C22.3152 39.6969 22.4346 38.9873 22.6029 38.2886Z" fill="#FCFFFA"/>
<path d="M33.9575 46.4016C34.7356 45.7149 36.3685 41.811 37.1977 38.5938C38.1034 35.0332 38.4734 30.6079 37.9759 29.1837C37.5952 28.2077 36.9854 27.3369 36.1974 26.6443C35.4094 25.9518 34.4663 25.4577 33.4472 25.2035C32.3358 24.9186 31.1818 24.8368 30.0412 24.9619C28.5994 25.0769 27.2397 25.6769 26.185 26.6635C25.1304 27.6501 24.4434 28.9648 24.2368 30.3918C24.1912 30.7953 24.2853 31.2023 24.5036 31.5452C24.7219 31.8881 25.0512 32.1463 25.437 32.277C25.8227 32.4076 26.2417 32.4029 26.6244 32.2635C27.0071 32.1241 27.3304 31.8586 27.5408 31.5108C27.7199 31.1006 27.8608 30.675 27.9618 30.2392C28.1741 29.7154 28.5075 29.249 28.9349 28.8781C29.3622 28.5071 29.8715 28.2421 30.4211 28.1045C30.9707 27.9669 31.5451 27.9607 32.0976 28.0863C32.6501 28.212 33.165 28.466 33.6003 28.8276C34.6464 29.7051 34.8122 30.7478 34.4167 33.8506C33.9886 37.3323 32.9706 40.7163 31.4061 43.8584C30.6918 45.2953 30.7683 45.9438 31.7378 46.4906C32.0769 46.6911 32.467 46.7893 32.8609 46.7735C33.2548 46.7577 33.6356 46.6286 33.9575 46.4016Z" fill="#FCFFFA"/>
<path d="M23.5985 60.1353C24.1313 59.9416 24.6371 59.6809 25.1038 59.3596C27.9931 57.5021 30.2832 54.8528 31.699 51.7298C32.3241 50.4582 32.4134 49.7969 32.0179 49.1865C31.8473 48.959 31.6241 48.7758 31.3673 48.6524C31.1007 48.548 30.8135 48.5063 30.5281 48.5306C30.2427 48.5549 29.9668 48.6444 29.7217 48.7923C29.4247 49.1052 29.1908 49.4722 29.0329 49.8732C27.8424 52.6683 25.8326 55.0396 23.2668 56.6764C22.7955 56.9538 22.366 57.2963 21.9911 57.6938C21.8254 57.954 21.7384 58.2564 21.7408 58.5646C21.7431 58.8729 21.8346 59.174 22.0042 59.4317C22.1739 59.6894 22.4146 59.8929 22.6973 60.0177C22.9801 60.1425 23.293 60.1833 23.5985 60.1353Z" fill="#FCFFFA"/>
<path d="M28.8539 12.5253C26.7368 12.7795 24.6764 13.3811 22.7562 14.3056C21.3274 15.005 20.8682 15.3992 20.7406 16.0731C20.7078 16.3986 20.7683 16.7267 20.9151 17.0194C21.0619 17.312 21.2889 17.5571 21.5698 17.7262C22.2076 18.0187 22.5776 17.9551 23.8533 17.3193C25.9993 16.1925 28.393 15.6156 30.8184 15.6408C33.9879 15.6047 37.0858 16.5806 39.6589 18.4256C41.0102 19.4736 42.2194 20.6918 43.2563 22.0498C44.5458 23.9059 45.4163 26.0188 45.8076 28.2427C46.026 31.1567 45.9875 34.0842 45.6928 36.9915C44.6978 45.3461 42.1975 51.7043 38.0388 56.3966C37.1585 57.3758 37.0948 57.5029 37.0437 58.0625C37.0095 58.2395 37.0134 58.4217 37.0552 58.5971C37.097 58.7725 37.1757 58.937 37.2861 59.0798C37.4136 59.2645 37.5791 59.42 37.7716 59.5359C37.9642 59.6518 38.1793 59.7255 38.4026 59.7519C38.626 59.7784 38.8524 59.7571 39.0668 59.6894C39.2813 59.6218 39.4787 59.5093 39.6461 59.3595C40.8076 58.1514 41.8618 56.8452 42.797 55.4556C46.1018 50.1469 48.1359 44.151 48.7417 37.9325C49.2538 34.3536 49.2795 30.7221 48.8182 27.1363C48.1115 23.5902 46.3661 20.3325 43.8027 17.7748C41.2392 15.2172 37.9726 13.4745 34.4158 12.7669C32.574 12.5077 30.7114 12.4268 28.8539 12.5253Z" fill="#FCFFFA"/>
<path d="M38.5878 25.6359C39.0853 26.5388 39.6338 27.1364 40.042 27.2382C40.2615 27.2899 40.4893 27.2954 40.711 27.2543C40.9326 27.2132 41.1433 27.1265 41.3294 26.9996C41.5155 26.8727 41.673 26.7085 41.7918 26.5175C41.9106 26.3265 41.9881 26.1128 42.0193 25.8902C41.9387 24.9067 41.5352 23.9771 40.8712 23.2452C40.3101 22.4492 39.6547 21.7233 38.9195 21.0835C37.4487 19.8173 35.7013 18.9115 33.8168 18.4385C32.4028 18.1225 30.9513 18.0069 29.505 18.0951L28.4972 18.2731C26.6662 18.6384 24.9426 19.4145 23.4573 20.5426C21.972 21.6706 20.7639 23.1211 19.9247 24.7839C18.9934 26.6405 18.751 27.7468 18.649 31.1421C18.5801 33.733 18.3028 36.3142 17.8198 38.8609C17.0289 42.6758 15.8297 45.4988 14.1459 47.2791C13.3014 48.2376 12.1991 48.9348 10.9694 49.2883C9.69376 49.7079 9.3238 50.0131 9.19623 50.7634C9.15813 51.0718 9.21008 51.3846 9.34584 51.6642C9.4816 51.9439 9.69542 52.1786 9.96165 52.3402C10.4719 52.6836 11.0205 52.6454 12.4109 52.1876C13.7572 51.7292 14.9795 50.9677 15.9828 49.9623C17.5104 48.4755 18.6869 46.6685 19.4271 44.6723C20.9231 40.6534 21.7128 36.4075 21.7616 32.1212C21.902 28.8659 22.0806 27.8231 22.7056 26.5006C23.7126 24.3306 25.542 22.6473 27.7924 21.8201C30.0428 20.9929 32.5305 21.0892 34.7097 22.088C36.3224 22.8676 37.6706 24.101 38.5878 25.6359Z" fill="#FCFFFA"/>
<path d="M48.2068 55.7227C48.564 55.5828 48.8574 55.2904 49.3932 54.5655C51.5117 51.5645 53.004 48.17 53.7815 44.5832C54.3939 42.1162 54.3556 41.4041 53.5519 40.8955C53.3367 40.7621 53.0935 40.6801 52.8412 40.6558C52.5889 40.6316 52.3345 40.6657 52.0976 40.7556C51.4215 41.0608 51.2429 41.3787 50.822 43.1208C50.1375 46.7118 48.6651 50.1076 46.5102 53.065C46.3044 53.2822 46.1558 53.5469 46.0779 53.8355C46 54.124 45.9951 54.4273 46.0637 54.7181C46.123 54.9346 46.2288 55.1357 46.3736 55.3075C46.5185 55.4793 46.699 55.6178 46.9028 55.7133C47.1065 55.8088 47.3286 55.8591 47.5538 55.8607C47.7789 55.8624 48.0017 55.8153 48.2068 55.7227Z" fill="#FCFFFA"/>
<path d="M41.7647 8.9392C40.6166 8.37969 40.2849 8.32882 39.7108 8.58315C39.4492 8.67385 39.2243 8.847 39.0701 9.07642C38.9159 9.30584 38.8408 9.57906 38.8561 9.85478C38.7796 10.7831 39.0475 11.1264 40.387 11.8004C45.4178 14.351 49.2396 18.7728 51.0261 24.1098C51.9081 26.8813 52.2713 29.7909 52.0976 32.6933C52.0211 34.4482 52.0976 34.7661 52.1997 35.0967C52.3335 35.3392 52.5281 35.5431 52.7645 35.6883C53.0009 35.8336 53.271 35.9153 53.5485 35.9256C53.826 35.9358 54.1014 35.8742 54.348 35.7468C54.5945 35.6194 54.8037 35.4304 54.9552 35.1984C55.172 34.8551 55.1975 34.5372 55.2358 31.9431C55.4719 27.2175 54.3242 22.5255 51.9323 18.4388C49.5404 14.352 46.0077 11.047 41.7647 8.92649V8.9392Z" fill="#FCFFFA"/>
<path d="M31.6737 6.58673C30.4336 6.36289 29.1632 6.36289 27.9232 6.58673C23.9413 7.0633 20.1379 8.50827 16.8479 10.7945C13.5579 13.0806 10.8821 16.1379 9.05595 19.6973C7.21875 23.3075 6.29471 27.3106 6.36428 31.3582C6.47484 33.4634 6.09497 35.5656 5.25444 37.5001C4.94919 38.1834 4.47519 38.7784 3.87671 39.2296C3.63017 39.3759 3.42702 39.5848 3.28806 39.8351C3.1491 40.0853 3.0793 40.3679 3.0858 40.6538C3.06953 40.8644 3.10004 41.076 3.17517 41.2735C3.2503 41.4711 3.36819 41.6497 3.52046 41.7966C3.67272 41.9435 3.8556 42.0551 4.05609 42.1236C4.25658 42.192 4.46974 42.2155 4.68039 42.1925C5.7392 42.1925 7.23173 40.8445 8.11195 38.988C8.99216 37.1314 9.38762 35.3638 9.52795 31.6252C9.51158 29.6867 9.72568 27.753 10.1658 25.8647C11.2205 21.4519 13.6642 17.4913 17.1394 14.5625C20.6146 11.6338 24.9389 9.89049 29.4795 9.58779C30.2016 9.55882 30.9193 9.46088 31.6226 9.29531C31.8546 9.15518 32.0473 8.9588 32.1827 8.72445C32.318 8.4901 32.3917 8.22541 32.3968 7.95504C32.4019 7.68466 32.3382 7.41741 32.2118 7.17816C32.0854 6.93891 31.9002 6.73545 31.6737 6.58673Z" fill="#FCFFFA"/>
<path d="M55.5159 12.7669C54.7887 11.7623 54.406 11.4952 53.7172 11.4952C53.5105 11.4824 53.3035 11.5133 53.1097 11.5859C52.9159 11.6585 52.7397 11.7711 52.5927 11.9165C52.4457 12.0618 52.3312 12.2365 52.2567 12.4291C52.1823 12.6217 52.1496 12.8278 52.1608 13.0339C52.1608 13.568 52.1608 13.6061 53.4365 15.4246C55.8072 18.8571 57.3494 22.7896 57.9425 26.9148C58.5356 31.04 58.1635 35.2461 56.8553 39.2041C56.6156 39.8745 56.4322 40.5636 56.3068 41.2642C56.3022 41.4707 56.3416 41.6758 56.4224 41.8661C56.5031 42.0564 56.6234 42.2274 56.7752 42.368C56.9271 42.5085 57.1071 42.6154 57.3034 42.6816C57.4997 42.7478 57.7079 42.7718 57.9141 42.752C58.8964 42.752 59.2919 42.1797 60.07 39.6238C60.5404 38.2632 60.9406 36.8796 61.2692 35.4782C63.2975 25.9791 58.6413 17.154 55.5159 12.7669Z" fill="#FCFFFA"/>
<path d="M42.7209 34.0032C42.5013 33.7917 42.2346 33.6348 41.9427 33.5454C41.7272 33.4855 41.5011 33.4739 41.2806 33.5112C41.0601 33.5486 40.8506 33.6341 40.667 33.7616C39.9271 34.3084 39.9526 35.4656 39.8634 36.3049C39.3798 42.297 37.2916 48.05 33.8167 52.9633C33.0096 54.0131 32.1179 54.9955 31.1505 55.9007C30.1063 56.6635 29.2366 57.6387 28.5992 58.7619L28.5226 58.9781C28.1271 60.2497 29.6197 61.0381 30.6785 60.6566C31.0317 60.5237 31.3563 60.3252 31.6353 60.0717C32.4134 59.4104 33.0768 58.622 33.8039 57.9099C34.5488 57.1654 35.2516 56.38 35.9088 55.5574C39.0898 51.4196 41.2724 46.6072 42.2871 41.4931C42.7528 39.3053 43.0598 37.087 43.2056 34.8552C43.2314 34.7336 43.2314 34.608 43.2056 34.4864C43.1572 34.3729 43.088 34.2694 43.0015 34.1812L42.7209 34.0032Z" fill="#FCFFFA"/>
<path d="M31.3034 32.8841C31.0835 32.6936 30.821 32.5585 30.538 32.4899C30.2966 32.4121 30.0408 32.3889 29.7893 32.4218C29.5377 32.4548 29.2967 32.5432 29.0837 32.6806C28.8257 32.8854 28.6384 33.1655 28.5479 33.4817C28.4165 33.9397 28.3226 34.4075 28.2673 34.8805C27.4677 40.404 25.0996 45.5842 21.4424 49.8095C20.5807 50.7348 19.6419 51.5856 18.6359 52.3528C17.5684 52.9784 16.6431 53.8185 15.9188 54.8198C15.8968 54.8907 15.8669 54.959 15.8295 55.0232C15.383 56.1423 16.8245 56.9688 17.9088 56.6763C18.2622 56.5681 18.5944 56.4004 18.8911 56.1804C19.7075 55.6209 20.3964 54.9088 21.1618 54.3238C21.9366 53.6846 22.6735 53.001 23.3687 52.2765C26.6944 48.7252 29.1064 44.4228 30.3977 39.7382C30.7038 38.6573 30.9462 37.5637 31.1631 36.4701C31.2651 35.8979 31.3672 35.3256 31.4565 34.7661C31.6209 34.2879 31.6604 33.7759 31.5713 33.2783C31.5168 33.1264 31.4247 32.9908 31.3034 32.8841Z" fill="#FCFFFA"/>
<path d="M48.308 5.951C48.0146 5.28975 44.1748 3.16612 41.5087 2.1361C39.6205 1.37457 37.652 0.828537 35.6406 0.508406C30.7748 -0.0350133 25.8487 0.476851 21.1999 2.00892C18.912 2.67737 16.7207 3.63914 14.6812 4.8701C13.5969 5.55678 13.3163 5.91285 13.3163 6.63768C13.2983 6.84647 13.3267 7.05664 13.3996 7.2532C13.4725 7.44977 13.588 7.62788 13.7378 7.77484C13.8877 7.9218 14.0682 8.03398 14.2666 8.10338C14.4649 8.17278 14.6762 8.19771 14.8854 8.17636C15.2808 8.17636 15.638 8.02376 16.7606 7.34979C21.0073 4.79714 25.8723 3.44812 30.8313 3.44812C35.7903 3.44812 40.6553 4.79714 44.902 7.34979C45.4612 7.71356 46.0604 8.01222 46.6879 8.23993C46.9729 8.27056 47.261 8.22466 47.5222 8.10697C47.7834 7.98928 48.0083 7.8041 48.1736 7.57062C48.3388 7.33713 48.4384 7.06384 48.4621 6.77907C48.4857 6.49429 48.4325 6.20839 48.308 5.951Z" fill="#FCFFFA"/>
<path d="M12.2709 9.67693C12.1788 9.41661 12.0323 9.17878 11.8409 8.97927C11.6495 8.77975 11.4178 8.62311 11.161 8.51974C10.3956 8.26542 9.97467 8.51974 8.6097 9.93126C5.89772 12.7909 3.73572 16.1227 2.23133 19.761C1.13237 22.3058 0.509803 25.0295 0.394363 27.7977C0.394363 29.1711 0.0244133 32.045 2.01447 32.1976C2.23765 32.217 2.46204 32.1775 2.66506 32.0831C2.91698 31.9359 3.11061 31.707 3.2136 31.4346C3.40911 30.8616 3.50405 30.2594 3.49425 29.6543C3.64805 25.8832 4.58637 22.1851 6.2497 18.7945C7.46172 16.3144 9.06378 14.0434 10.9952 12.0676C12.1688 10.796 12.3857 10.3509 12.2709 9.67693Z" fill="#FCFFFA"/>
<path d="M11.773 36.9406C10.7142 41.5948 9.00479 44.3034 6.51723 45.2698C5.53496 45.6641 5.24156 46.0328 5.24156 46.9103C5.22013 47.0941 5.24376 47.2804 5.31041 47.4532C5.37707 47.6259 5.48477 47.78 5.62426 47.9021C6.31313 48.6524 7.39745 48.5507 9.0941 47.5588C11.5896 45.8252 13.3954 43.2735 14.1968 40.3486C14.6528 38.9757 14.9732 37.5618 15.1535 36.1268C15.1539 35.8281 15.0704 35.5353 14.9126 35.2814C14.7548 35.0275 14.529 34.8226 14.2606 34.6899C14.06 34.6 13.8426 34.5536 13.6227 34.5536C13.4029 34.5536 13.1855 34.6 12.9849 34.6899C12.3343 34.9569 12.143 35.3257 11.773 36.9406Z" fill="#FCFFFA"/>
<path d="M13.329 32.1211C13.5753 32.2247 13.8399 32.278 14.1072 32.278C14.3745 32.278 14.6391 32.2247 14.8854 32.1211C15.4467 31.8414 15.6125 31.3582 15.7145 29.7559C15.9236 26.7912 16.9916 23.9506 18.7889 21.5793C19.0722 21.2302 19.3002 20.84 19.465 20.4221C19.5081 20.1542 19.4828 19.8798 19.3914 19.6242C19.3 19.3686 19.1454 19.1401 18.942 18.9597C18.7023 18.7411 18.4 18.6026 18.0775 18.5639C17.7549 18.5251 17.4282 18.5879 17.1433 18.7436C16.0154 19.8341 15.1063 21.1288 14.4644 22.5585C13.3253 24.8102 12.6734 27.2752 12.5509 29.7941C12.4743 31.1674 12.5509 31.231 12.7677 31.6379C12.9249 31.8307 13.1149 31.9942 13.329 32.1211Z" fill="#FCFFFA"/>
</g>
<path d="M91.9561 15.0285H89.0701C88.9878 14.5552 88.836 14.136 88.6148 13.7707C88.3936 13.4003 88.1184 13.0865 87.7891 12.8293C87.4599 12.5721 87.0844 12.3792 86.6625 12.2505C86.2458 12.1168 85.7957 12.0499 85.3121 12.0499C84.453 12.0499 83.6916 12.266 83.028 12.6981C82.3644 13.1251 81.8448 13.7527 81.4692 14.581C81.0937 15.4041 80.9059 16.4098 80.9059 17.5982C80.9059 18.8071 81.0937 19.8257 81.4692 20.654C81.8499 21.4771 82.3695 22.0995 83.028 22.5214C83.6916 22.9381 84.4504 23.1464 85.3044 23.1464C85.7777 23.1464 86.2201 23.0847 86.6317 22.9612C87.0484 22.8326 87.4213 22.6448 87.7506 22.3979C88.085 22.151 88.3653 21.8475 88.5917 21.4874C88.8232 21.1272 88.9827 20.7157 89.0701 20.2527L91.9561 20.2681C91.8481 21.0192 91.614 21.724 91.2539 22.3825C90.899 23.041 90.4334 23.6223 89.8572 24.1264C89.281 24.6254 88.6071 25.0164 87.8354 25.2994C87.0638 25.5772 86.2072 25.7161 85.2658 25.7161C83.8768 25.7161 82.637 25.3945 81.5464 24.7515C80.4558 24.1084 79.5967 23.1799 78.969 21.9658C78.3414 20.7517 78.0276 19.2958 78.0276 17.5982C78.0276 15.8954 78.344 14.4395 78.9768 13.2306C79.6095 12.0165 80.4712 11.0879 81.5618 10.4449C82.6524 9.8018 83.8871 9.48028 85.2658 9.48028C86.1455 9.48028 86.9635 9.60374 87.7197 9.85067C88.4759 10.0976 89.1498 10.4603 89.7415 10.9387C90.3331 11.412 90.8192 11.9933 91.1999 12.6827C91.5857 13.3669 91.8378 14.1488 91.9561 15.0285ZM96.2967 29.9448C95.916 29.9448 95.5637 29.9139 95.2396 29.8522C94.9206 29.7956 94.666 29.7287 94.4756 29.6515L95.1238 27.4755C95.5302 27.5938 95.8929 27.6504 96.2119 27.6452C96.5308 27.6401 96.8112 27.5398 97.053 27.3443C97.2999 27.1539 97.5082 26.835 97.678 26.3874L97.9172 25.7469L93.6191 13.6473H96.5822L99.3139 22.5985H99.4374L102.177 13.6473H105.148L100.402 26.9353C100.181 27.5629 99.8875 28.1005 99.5223 28.5481C99.157 29.0008 98.7095 29.3455 98.1796 29.5821C97.6549 29.8239 97.0272 29.9448 96.2967 29.9448ZM107.204 25.5V9.69634H109.998V15.6073H110.113C110.257 15.3192 110.461 15.0131 110.723 14.689C110.985 14.3598 111.34 14.0794 111.788 13.8479C112.235 13.6112 112.806 13.4929 113.501 13.4929C114.417 13.4929 115.242 13.727 115.978 14.1951C116.719 14.6581 117.305 15.3449 117.737 16.2555C118.175 17.1609 118.393 18.2721 118.393 19.5891C118.393 20.8906 118.18 21.9966 117.753 22.9072C117.326 23.8178 116.745 24.5123 116.009 24.9907C115.273 25.4691 114.44 25.7083 113.509 25.7083C112.83 25.7083 112.266 25.5952 111.819 25.3688C111.371 25.1425 111.011 24.8698 110.738 24.5509C110.471 24.2268 110.263 23.9207 110.113 23.6326H109.951V25.5H107.204ZM109.944 19.5736C109.944 20.3401 110.052 21.0115 110.268 21.5877C110.489 22.1638 110.805 22.614 111.217 22.9381C111.634 23.257 112.138 23.4165 112.729 23.4165C113.347 23.4165 113.864 23.2519 114.28 22.9226C114.697 22.5883 115.011 22.133 115.222 21.5568C115.438 20.9755 115.546 20.3144 115.546 19.5736C115.546 18.838 115.44 18.1846 115.229 17.6136C115.019 17.0426 114.705 16.595 114.288 16.2709C113.871 15.9468 113.352 15.7848 112.729 15.7848C112.133 15.7848 111.626 15.9417 111.209 16.2555C110.792 16.5693 110.476 17.0091 110.26 17.575C110.049 18.1409 109.944 18.8071 109.944 19.5736ZM126.015 25.7315C124.827 25.7315 123.801 25.4846 122.936 24.9907C122.077 24.4917 121.416 23.7869 120.953 22.8763C120.49 21.9606 120.259 20.8829 120.259 19.6431C120.259 18.4239 120.49 17.3538 120.953 16.433C121.421 15.507 122.075 14.7867 122.913 14.2723C123.752 13.7527 124.737 13.4929 125.869 13.4929C126.599 13.4929 127.289 13.6112 127.937 13.8479C128.59 14.0794 129.166 14.4395 129.665 14.9282C130.17 15.4169 130.566 16.0394 130.854 16.7956C131.142 17.5467 131.286 18.4419 131.286 19.481V20.3376H121.571V18.4547H128.608C128.603 17.9197 128.487 17.4438 128.261 17.0271C128.035 16.6053 127.718 16.2735 127.312 16.0317C126.911 15.7899 126.442 15.669 125.907 15.669C125.336 15.669 124.835 15.8079 124.403 16.0857C123.97 16.3584 123.634 16.7185 123.392 17.166C123.155 17.6085 123.034 18.0946 123.029 18.6245V20.2681C123.029 20.9575 123.155 21.5491 123.407 22.0429C123.659 22.5317 124.012 22.9072 124.464 23.1696C124.917 23.4268 125.447 23.5554 126.054 23.5554C126.46 23.5554 126.828 23.4988 127.157 23.3856C127.487 23.2673 127.772 23.095 128.014 22.8686C128.256 22.6423 128.438 22.3619 128.562 22.0275L131.17 22.3207C131.005 23.0101 130.692 23.612 130.229 24.1264C129.771 24.6357 129.184 25.0319 128.469 25.3148C127.754 25.5926 126.936 25.7315 126.015 25.7315ZM133.649 25.5V13.6473H136.358V15.6227H136.481C136.697 14.9385 137.068 14.4112 137.592 14.0408C138.122 13.6653 138.727 13.4775 139.406 13.4775C139.56 13.4775 139.732 13.4852 139.923 13.5006C140.118 13.5109 140.28 13.5289 140.409 13.5547V16.1243C140.291 16.0831 140.103 16.0471 139.846 16.0163C139.593 15.9803 139.349 15.9622 139.112 15.9622C138.603 15.9622 138.145 16.0728 137.739 16.2941C137.338 16.5101 137.021 16.8111 136.79 17.1969C136.558 17.5827 136.443 18.0277 136.443 18.5319V25.5H133.649ZM156.367 14.0408C156.295 13.3669 155.991 12.8422 155.456 12.4666C154.926 12.0911 154.237 11.9033 153.388 11.9033C152.791 11.9033 152.28 11.9933 151.853 12.1734C151.426 12.3534 151.099 12.5978 150.873 12.9065C150.646 13.2151 150.53 13.5675 150.525 13.9636C150.525 14.2929 150.6 14.5784 150.749 14.8202C150.903 15.062 151.112 15.2677 151.374 15.4375C151.637 15.6021 151.927 15.741 152.246 15.8542C152.565 15.9674 152.887 16.0626 153.211 16.1397L154.692 16.5101C155.289 16.649 155.863 16.8368 156.413 17.0734C156.969 17.3101 157.465 17.6085 157.902 17.9686C158.345 18.3287 158.695 18.7634 158.952 19.2727C159.209 19.782 159.338 20.3787 159.338 21.0629C159.338 21.9889 159.101 22.8043 158.628 23.5091C158.155 24.2088 157.47 24.7566 156.575 25.1528C155.685 25.5437 154.607 25.7392 153.342 25.7392C152.112 25.7392 151.045 25.5489 150.14 25.1682C149.239 24.7875 148.534 24.2319 148.025 23.5014C147.521 22.7709 147.248 21.8809 147.207 20.8314H150.024C150.065 21.3819 150.235 21.8397 150.533 22.205C150.831 22.5703 151.22 22.8429 151.698 23.023C152.182 23.203 152.722 23.293 153.319 23.293C153.941 23.293 154.487 23.2004 154.955 23.0152C155.428 22.8249 155.798 22.5625 156.066 22.2281C156.333 21.8886 156.47 21.4925 156.475 21.0398C156.47 20.6282 156.349 20.2887 156.112 20.0212C155.876 19.7485 155.544 19.5222 155.117 19.3421C154.695 19.1569 154.201 18.9923 153.635 18.8483L151.837 18.3853C150.536 18.0509 149.507 17.5442 148.751 16.8651C147.999 16.1809 147.624 15.2729 147.624 14.1411C147.624 13.21 147.876 12.3946 148.38 11.6949C148.889 10.9953 149.581 10.4526 150.456 10.0667C151.33 9.67576 152.321 9.48028 153.427 9.48028C154.548 9.48028 155.531 9.67576 156.375 10.0667C157.223 10.4526 157.89 10.9902 158.373 11.6795C158.857 12.3637 159.106 13.1508 159.122 14.0408H156.367ZM167.014 25.7315C165.826 25.7315 164.799 25.4846 163.935 24.9907C163.076 24.4917 162.415 23.7869 161.952 22.8763C161.489 21.9606 161.257 20.8829 161.257 19.6431C161.257 18.4239 161.489 17.3538 161.952 16.433C162.42 15.507 163.073 14.7867 163.912 14.2723C164.75 13.7527 165.735 13.4929 166.867 13.4929C167.598 13.4929 168.287 13.6112 168.935 13.8479C169.589 14.0794 170.165 14.4395 170.664 14.9282C171.168 15.4169 171.564 16.0394 171.852 16.7956C172.14 17.5467 172.284 18.4419 172.284 19.481V20.3376H162.569V18.4547H169.607C169.602 17.9197 169.486 17.4438 169.259 17.0271C169.033 16.6053 168.717 16.2735 168.31 16.0317C167.909 15.7899 167.441 15.669 166.906 15.669C166.335 15.669 165.833 15.8079 165.401 16.0857C164.969 16.3584 164.632 16.7185 164.39 17.166C164.154 17.6085 164.033 18.0946 164.028 18.6245V20.2681C164.028 20.9575 164.154 21.5491 164.406 22.0429C164.658 22.5317 165.01 22.9072 165.463 23.1696C165.916 23.4268 166.445 23.5554 167.052 23.5554C167.459 23.5554 167.827 23.4988 168.156 23.3856C168.485 23.2673 168.771 23.095 169.012 22.8686C169.254 22.6423 169.437 22.3619 169.56 22.0275L172.169 22.3207C172.004 23.0101 171.69 23.612 171.227 24.1264C170.769 24.6357 170.183 25.0319 169.468 25.3148C168.753 25.5926 167.935 25.7315 167.014 25.7315ZM179.818 25.7315C178.634 25.7315 177.618 25.4717 176.77 24.9521C175.926 24.4325 175.275 23.7149 174.817 22.7992C174.365 21.8783 174.138 20.8186 174.138 19.6199C174.138 18.4161 174.37 17.3538 174.833 16.433C175.296 15.507 175.949 14.7867 176.793 14.2723C177.642 13.7527 178.645 13.4929 179.802 13.4929C180.764 13.4929 181.616 13.6704 182.356 14.0254C183.102 14.3752 183.697 14.8716 184.139 15.5147C184.581 16.1526 184.833 16.8985 184.895 17.7525H182.225C182.117 17.1815 181.86 16.7056 181.454 16.3249C181.052 15.9391 180.515 15.7462 179.841 15.7462C179.27 15.7462 178.768 15.9005 178.336 16.2092C177.904 16.5127 177.567 16.95 177.325 17.521C177.089 18.092 176.97 18.7762 176.97 19.5736C176.97 20.3813 177.089 21.0758 177.325 21.6571C177.562 22.2333 177.894 22.6783 178.321 22.9921C178.753 23.3008 179.26 23.4551 179.841 23.4551C180.252 23.4551 180.62 23.3779 180.944 23.2236C181.274 23.0641 181.549 22.8352 181.77 22.5368C181.991 22.2384 182.143 21.8758 182.225 21.4488H184.895C184.828 22.2873 184.581 23.0307 184.154 23.6789C183.727 24.3219 183.146 24.8261 182.41 25.1913C181.675 25.5514 180.811 25.7315 179.818 25.7315ZM194.744 20.5151V13.6473H197.537V25.5H194.828V23.3934H194.705C194.437 24.057 193.998 24.5997 193.385 25.0216C192.778 25.4434 192.03 25.6543 191.14 25.6543C190.363 25.6543 189.676 25.482 189.08 25.1373C188.488 24.7875 188.025 24.2808 187.691 23.6171C187.356 22.9484 187.189 22.1407 187.189 21.1941V13.6473H189.982V20.762C189.982 21.5131 190.188 22.1098 190.6 22.5522C191.011 22.9947 191.551 23.2159 192.22 23.2159C192.632 23.2159 193.03 23.1156 193.416 22.9149C193.802 22.7143 194.119 22.4159 194.365 22.0198C194.618 21.6185 194.744 21.117 194.744 20.5151ZM200.41 25.5V13.6473H203.118V15.6227H203.242C203.458 14.9385 203.828 14.4112 204.353 14.0408C204.883 13.6653 205.487 13.4775 206.166 13.4775C206.32 13.4775 206.493 13.4852 206.683 13.5006C206.879 13.5109 207.041 13.5289 207.169 13.5547V16.1243C207.051 16.0831 206.863 16.0471 206.606 16.0163C206.354 15.9803 206.11 15.9622 205.873 15.9622C205.364 15.9622 204.906 16.0728 204.499 16.2941C204.098 16.5101 203.782 16.8111 203.55 17.1969C203.319 17.5827 203.203 18.0277 203.203 18.5319V25.5H200.41ZM209.025 25.5V13.6473H211.819V25.5H209.025ZM210.43 11.965C209.987 11.965 209.606 11.8184 209.287 11.5252C208.969 11.2268 208.809 10.8693 208.809 10.4526C208.809 10.0307 208.969 9.67319 209.287 9.37996C209.606 9.08158 209.987 8.93239 210.43 8.93239C210.877 8.93239 211.258 9.08158 211.572 9.37996C211.891 9.67319 212.05 10.0307 212.05 10.4526C212.05 10.8693 211.891 11.2268 211.572 11.5252C211.258 11.8184 210.877 11.965 210.43 11.965ZM220.61 13.6473V15.8079H213.796V13.6473H220.61ZM215.478 10.8075H218.272V21.9349C218.272 22.3105 218.328 22.5985 218.441 22.7992C218.56 22.9947 218.714 23.1284 218.904 23.2004C219.095 23.2725 219.306 23.3085 219.537 23.3085C219.712 23.3085 219.871 23.2956 220.016 23.2699C220.165 23.2442 220.278 23.221 220.355 23.2004L220.826 25.3843C220.677 25.4357 220.463 25.4923 220.185 25.554C219.913 25.6157 219.578 25.6518 219.182 25.662C218.482 25.6826 217.852 25.5772 217.292 25.3457C216.731 25.109 216.286 24.7438 215.957 24.2499C215.632 23.756 215.473 23.1387 215.478 22.3979V10.8075ZM224.682 29.9448C224.301 29.9448 223.949 29.9139 223.625 29.8522C223.306 29.7956 223.051 29.7287 222.861 29.6515L223.509 27.4755C223.916 27.5938 224.278 27.6504 224.597 27.6452C224.916 27.6401 225.197 27.5398 225.438 27.3443C225.685 27.1539 225.894 26.835 226.063 26.3874L226.303 25.7469L222.004 13.6473H224.968L227.699 22.5985H227.823L230.562 13.6473H233.533L228.787 26.9353C228.566 27.5629 228.273 28.1005 227.908 28.5481C227.542 29.0008 227.095 29.3455 226.565 29.5821C226.04 29.8239 225.413 29.9448 224.682 29.9448ZM83.7842 51.5H78.4289V35.6963H83.8923C85.4613 35.6963 86.8091 36.0127 87.9358 36.6455C89.0675 37.2731 89.9369 38.176 90.544 39.354C91.151 40.5321 91.4545 41.9417 91.4545 43.5827C91.4545 45.229 91.1485 46.6437 90.5363 47.8269C89.9292 49.0101 89.0521 49.9181 87.9049 50.5509C86.7628 51.1836 85.3893 51.5 83.7842 51.5ZM81.2917 49.023H83.6453C84.7462 49.023 85.6645 48.8223 86.4002 48.4211C87.1358 48.0147 87.6888 47.4102 88.0592 46.6077C88.4296 45.8 88.6148 44.7917 88.6148 43.5827C88.6148 42.3738 88.4296 41.3706 88.0592 40.5733C87.6888 39.7707 87.141 39.1714 86.4156 38.7753C85.6954 38.374 84.8002 38.1734 83.7302 38.1734H81.2917V49.023ZM99.2985 51.7315C98.1101 51.7315 97.0838 51.4846 96.2196 50.9907C95.3604 50.4917 94.6994 49.7869 94.2364 48.8763C93.7734 47.9606 93.5419 46.8829 93.5419 45.6431C93.5419 44.4239 93.7734 43.3538 94.2364 42.433C94.7045 41.507 95.3579 40.7867 96.1964 40.2723C97.035 39.7527 98.0201 39.4929 99.1519 39.4929C99.8824 39.4929 100.572 39.6112 101.22 39.8479C101.873 40.0794 102.449 40.4395 102.948 40.9282C103.453 41.4169 103.849 42.0394 104.137 42.7956C104.425 43.5467 104.569 44.4419 104.569 45.481V46.3376H94.8537V44.4547H101.891C101.886 43.9197 101.77 43.4438 101.544 43.0271C101.318 42.6053 101.001 42.2735 100.595 42.0317C100.194 41.7899 99.7255 41.669 99.1905 41.669C98.6194 41.669 98.1179 41.8079 97.6857 42.0857C97.2536 42.3584 96.9166 42.7185 96.6748 43.166C96.4382 43.6085 96.3173 44.0946 96.3122 44.6245V46.2681C96.3122 46.9575 96.4382 47.5491 96.6903 48.0429C96.9424 48.5317 97.2948 48.9072 97.7475 49.1696C98.2002 49.4268 98.73 49.5554 99.3371 49.5554C99.7435 49.5554 100.111 49.4988 100.441 49.3856C100.77 49.2673 101.055 49.095 101.297 48.8686C101.539 48.6423 101.722 48.3619 101.845 48.0275L104.453 48.3207C104.289 49.0101 103.975 49.612 103.512 50.1264C103.054 50.6357 102.467 51.0319 101.752 51.3148C101.037 51.5926 100.219 51.7315 99.2985 51.7315ZM106.932 55.9448V39.6473H109.679V41.6073H109.841C109.985 41.3192 110.189 41.0131 110.451 40.689C110.713 40.3598 111.068 40.0794 111.516 39.8479C111.963 39.6112 112.534 39.4929 113.229 39.4929C114.145 39.4929 114.97 39.727 115.706 40.1951C116.447 40.6581 117.033 41.3449 117.465 42.2555C117.903 43.1609 118.121 44.2721 118.121 45.5891C118.121 46.8906 117.908 47.9966 117.481 48.9072C117.054 49.8178 116.473 50.5123 115.737 50.9907C115.001 51.4691 114.168 51.7083 113.237 51.7083C112.558 51.7083 111.994 51.5952 111.547 51.3688C111.099 51.1425 110.739 50.8698 110.466 50.5509C110.199 50.2268 109.991 49.9207 109.841 49.6326H109.726V55.9448H106.932ZM109.672 45.5736C109.672 46.3401 109.78 47.0115 109.996 47.5877C110.217 48.1638 110.533 48.614 110.945 48.9381C111.362 49.257 111.866 49.4165 112.457 49.4165C113.075 49.4165 113.592 49.2519 114.008 48.9226C114.425 48.5883 114.739 48.133 114.95 47.5568C115.166 46.9755 115.274 46.3144 115.274 45.5736C115.274 44.838 115.168 44.1846 114.957 43.6136C114.747 43.0426 114.433 42.595 114.016 42.2709C113.599 41.9468 113.08 41.7848 112.457 41.7848C111.861 41.7848 111.354 41.9417 110.937 42.2555C110.52 42.5693 110.204 43.0091 109.988 43.575C109.777 44.1409 109.672 44.8071 109.672 45.5736ZM123.924 51.7392C123.173 51.7392 122.497 51.6055 121.895 51.338C121.298 51.0653 120.825 50.664 120.475 50.1342C120.13 49.6043 119.958 48.9509 119.958 48.1741C119.958 47.5054 120.081 46.9523 120.328 46.5151C120.575 46.0778 120.912 45.728 121.339 45.4656C121.766 45.2032 122.247 45.0052 122.782 44.8714C123.322 44.7325 123.88 44.6322 124.457 44.5705C125.151 44.4984 125.714 44.4341 126.147 44.3776C126.579 44.3158 126.893 44.2232 127.088 44.0998C127.289 43.9711 127.389 43.7731 127.389 43.5056V43.4593C127.389 42.878 127.217 42.4278 126.872 42.1089C126.527 41.7899 126.031 41.6304 125.383 41.6304C124.698 41.6304 124.156 41.7796 123.754 42.078C123.358 42.3764 123.091 42.7288 122.952 43.1352L120.344 42.7648C120.549 42.0446 120.889 41.4427 121.362 40.9591C121.836 40.4704 122.414 40.1051 123.099 39.8633C123.783 39.6164 124.539 39.4929 125.367 39.4929C125.938 39.4929 126.507 39.5598 127.073 39.6936C127.638 39.8273 128.155 40.0485 128.624 40.3572C129.092 40.6607 129.467 41.0748 129.75 41.5996C130.038 42.1243 130.182 42.7802 130.182 43.5673V51.5H127.497V49.8718H127.404C127.235 50.201 126.995 50.5097 126.687 50.7978C126.383 51.0807 126 51.3097 125.537 51.4846C125.079 51.6543 124.542 51.7392 123.924 51.7392ZM124.65 49.6866C125.21 49.6866 125.696 49.576 126.108 49.3548C126.52 49.1284 126.836 48.83 127.057 48.4596C127.284 48.0892 127.397 47.6854 127.397 47.2481V45.8514C127.309 45.9234 127.16 45.9903 126.949 46.0521C126.743 46.1138 126.512 46.1678 126.255 46.2141C125.997 46.2604 125.743 46.3016 125.491 46.3376C125.239 46.3736 125.02 46.4045 124.835 46.4302C124.418 46.4868 124.045 46.5794 123.716 46.708C123.387 46.8366 123.127 47.0166 122.936 47.2481C122.746 47.4745 122.651 47.7677 122.651 48.1278C122.651 48.6423 122.839 49.0307 123.214 49.293C123.59 49.5554 124.068 49.6866 124.65 49.6866ZM132.991 51.5V39.6473H135.7V41.6227H135.823C136.039 40.9385 136.41 40.4112 136.934 40.0408C137.464 39.6653 138.069 39.4775 138.748 39.4775C138.902 39.4775 139.075 39.4852 139.265 39.5006C139.46 39.5109 139.622 39.5289 139.751 39.5547V42.1243C139.633 42.0831 139.445 42.0471 139.188 42.0163C138.936 41.9803 138.691 41.9622 138.455 41.9622C137.945 41.9622 137.487 42.0728 137.081 42.2941C136.68 42.5101 136.363 42.8111 136.132 43.1969C135.9 43.5827 135.785 44.0277 135.785 44.5319V51.5H132.991ZM148.162 39.6473V41.8079H141.348V39.6473H148.162ZM143.031 36.8075H145.824V47.9349C145.824 48.3105 145.881 48.5985 145.994 48.7992C146.112 48.9947 146.266 49.1284 146.457 49.2004C146.647 49.2725 146.858 49.3085 147.09 49.3085C147.264 49.3085 147.424 49.2956 147.568 49.2699C147.717 49.2442 147.83 49.221 147.907 49.2004L148.378 51.3843C148.229 51.4357 148.016 51.4923 147.738 51.554C147.465 51.6157 147.131 51.6518 146.735 51.662C146.035 51.6826 145.405 51.5772 144.844 51.3457C144.283 51.109 143.838 50.7438 143.509 50.2499C143.185 49.756 143.025 49.1387 143.031 48.3979V36.8075ZM150.498 51.5V39.6473H153.168V41.6613H153.307C153.554 40.9822 153.963 40.4524 154.534 40.0717C155.105 39.6858 155.787 39.4929 156.579 39.4929C157.382 39.4929 158.058 39.6884 158.609 40.0794C159.164 40.4652 159.555 40.9925 159.781 41.6613H159.905C160.167 41.0028 160.61 40.4781 161.232 40.0871C161.86 39.691 162.603 39.4929 163.462 39.4929C164.553 39.4929 165.443 39.8376 166.132 40.527C166.822 41.2163 167.166 42.222 167.166 43.5442V51.5H164.365V43.9763C164.365 43.2406 164.17 42.703 163.779 42.3635C163.388 42.0188 162.909 41.8465 162.343 41.8465C161.669 41.8465 161.142 42.0574 160.761 42.4793C160.386 42.896 160.198 43.4387 160.198 44.1075V51.5H157.459V43.8605C157.459 43.2484 157.274 42.7596 156.903 42.3944C156.538 42.0291 156.059 41.8465 155.468 41.8465C155.067 41.8465 154.701 41.9494 154.372 42.1552C154.043 42.3558 153.78 42.6413 153.585 43.0117C153.39 43.377 153.292 43.8039 153.292 44.2927V51.5H150.498ZM175.248 51.7315C174.059 51.7315 173.033 51.4846 172.169 50.9907C171.309 50.4917 170.648 49.7869 170.185 48.8763C169.722 47.9606 169.491 46.8829 169.491 45.6431C169.491 44.4239 169.722 43.3538 170.185 42.433C170.654 41.507 171.307 40.7867 172.145 40.2723C172.984 39.7527 173.969 39.4929 175.101 39.4929C175.831 39.4929 176.521 39.6112 177.169 39.8479C177.822 40.0794 178.398 40.4395 178.897 40.9282C179.402 41.4169 179.798 42.0394 180.086 42.7956C180.374 43.5467 180.518 44.4419 180.518 45.481V46.3376H170.803V44.4547H177.84C177.835 43.9197 177.719 43.4438 177.493 43.0271C177.267 42.6053 176.95 42.2735 176.544 42.0317C176.143 41.7899 175.674 41.669 175.139 41.669C174.568 41.669 174.067 41.8079 173.635 42.0857C173.203 42.3584 172.866 42.7185 172.624 43.166C172.387 43.6085 172.266 44.0946 172.261 44.6245V46.2681C172.261 46.9575 172.387 47.5491 172.639 48.0429C172.891 48.5317 173.244 48.9072 173.696 49.1696C174.149 49.4268 174.679 49.5554 175.286 49.5554C175.692 49.5554 176.06 49.4988 176.39 49.3856C176.719 49.2673 177.004 49.095 177.246 48.8686C177.488 48.6423 177.671 48.3619 177.794 48.0275L180.402 48.3207C180.238 49.0101 179.924 49.612 179.461 50.1264C179.003 50.6357 178.416 51.0319 177.701 51.3148C176.986 51.5926 176.168 51.7315 175.248 51.7315ZM185.675 44.555V51.5H182.881V39.6473H185.551V41.6613H185.69C185.963 40.9977 186.397 40.4704 186.994 40.0794C187.596 39.6884 188.339 39.4929 189.224 39.4929C190.042 39.4929 190.755 39.6678 191.362 40.0177C191.974 40.3675 192.447 40.8742 192.782 41.5378C193.121 42.2015 193.288 43.0066 193.283 43.9531V51.5H190.49V44.3853C190.49 43.593 190.284 42.9731 189.872 42.5256C189.466 42.078 188.903 41.8542 188.183 41.8542C187.694 41.8542 187.259 41.9622 186.878 42.1783C186.503 42.3892 186.207 42.6953 185.991 43.0966C185.78 43.4979 185.675 43.984 185.675 44.555ZM202.042 39.6473V41.8079H195.228V39.6473H202.042ZM196.91 36.8075H199.703V47.9349C199.703 48.3105 199.76 48.5985 199.873 48.7992C199.992 48.9947 200.146 49.1284 200.336 49.2004C200.527 49.2725 200.737 49.3085 200.969 49.3085C201.144 49.3085 201.303 49.2956 201.447 49.2699C201.597 49.2442 201.71 49.221 201.787 49.2004L202.258 51.3843C202.108 51.4357 201.895 51.4923 201.617 51.554C201.345 51.6157 201.01 51.6518 200.614 51.662C199.914 51.6826 199.284 51.5772 198.723 51.3457C198.163 51.109 197.718 50.7438 197.388 50.2499C197.064 49.756 196.905 49.1387 196.91 48.3979V36.8075Z" fill="#FCFFFA"/>
<defs>
<clipPath id="clip0_2155_86">
<rect width="61.411" height="60.4662" fill="white" transform="translate(0.342773 0.266914)"/>
</clipPath>
</defs>
</svg>
