<?xml version="1.0" encoding="UTF-8" standalone="no"?>
<!-- Generator: Adobe Illustrator 28.3.0, SVG Export Plug-In . SVG Version: 6.00 Build 0)  -->

<svg
   version="1.1"
   id="Слой_1"
   x="0px"
   y="0px"
   viewBox="0 0 841.89 595.28"
   style="enable-background:new 0 0 841.89 595.28;"
   xml:space="preserve"
   sodipodi:docname="logo1.svg"
   inkscape:version="1.4 (e7c3feb1, 2024-10-09)"
   xmlns:inkscape="http://www.inkscape.org/namespaces/inkscape"
   xmlns:sodipodi="http://sodipodi.sourceforge.net/DTD/sodipodi-0.dtd"
   xmlns="http://www.w3.org/2000/svg"
   xmlns:svg="http://www.w3.org/2000/svg"><defs
   id="defs16" /><sodipodi:namedview
   id="namedview16"
   pagecolor="#505050"
   bordercolor="#eeeeee"
   borderopacity="1"
   inkscape:showpageshadow="0"
   inkscape:pageopacity="0"
   inkscape:pagecheckerboard="0"
   inkscape:deskcolor="#505050"
   inkscape:zoom="0.1492159"
   inkscape:cx="110.57803"
   inkscape:cy="-284.82219"
   inkscape:window-width="1440"
   inkscape:window-height="900"
   inkscape:window-x="0"
   inkscape:window-y="0"
   inkscape:window-maximized="0"
   inkscape:current-layer="Слой_1" />
<style
   type="text/css"
   id="style1">
	.st0{fill:#FFFFFF;}
	.st1{fill:url(#SVGID_1_);}
	.st2{fill:#839DB1;}
</style>
<g
   id="g16"
   transform="matrix(3.5093494,0,0,3.8179991,-1035.7814,-637.66809)">
	<g
   id="g6">
		<path
   class="st0"
   d="m 412,288.48 v -27.69 h -6.02 v 28.09 h -16.83 v -28.09 h 16.83 c 0,-3.15 -2.53,-5.68 -3.94,-5.68 h -12.89 c -3.32,0 -6.02,2.65 -6.02,6.02 v 27.35 0.39 h -3.83 v 5.63 h 36.58 v -5.63 H 412 Z"
   id="path1" />
		<path
   class="st0"
   d="m 428.65,255.1 h -6.02 v 19.31 c 0,3.38 2.7,6.02 6.02,6.02 h 18.07 v 8.44 h -23.08 v 5.63 h 23.08 c 3.32,0 6.02,-2.7 6.02,-6.02 v -2.08 c 0,-3.32 -2.7,-6.02 -6.02,-6.02 v -5.57 h -18.07 z"
   id="path2" />
		<path
   class="st0"
   d="m 446.72,274.8 c 3.32,0 6.02,-2.7 6.02,-6.02 V 255.1 h -6.02 z"
   id="path3" />
		<rect
   x="460.39001"
   y="255.10001"
   class="st0"
   width="4.9000001"
   height="39.400002"
   id="rect3" />
		<path
   class="st0"
   d="m 496.3,272 v -0.01 h -7.37 l 7.37,-16.85 -6.31,-0.03 -7.38,16.89 h -3.64 v -16.9 h -6.02 v 39.4 h 6.02 v -16.88 h 17.06 v 16.88 h 6.02 v -16.49 c 0,-3.29 -2.56,-5.87 -5.75,-6.01 z"
   id="path4" />
		<path
   class="st0"
   d="m 526.54,255.1 c -3.1,0 -5.63,2.53 -5.63,5.63 h 12.04 v -5.63 z"
   id="path5" />
		<path
   class="st0"
   d="m 509.32,255.1 h -6.47 v 5.63 h 12.04 v -0.06 c 0,-3.09 -2.48,-5.57 -5.57,-5.57 z"
   id="path6" />
		<rect
   x="514.89001"
   y="260.73001"
   class="st0"
   width="6.02"
   height="33.77"
   id="rect6" />
	</g>
	<g
   id="g15">
		
			<linearGradient
   id="SVGID_1_"
   gradientUnits="userSpaceOnUse"
   x1="295.48792"
   y1="215.4771"
   x2="357.48651"
   y2="215.4771"
   gradientTransform="matrix(-0.8368,-0.5476,-0.5476,0.8368,714.7026,219.315)">
			<stop
   offset="0"
   style="stop-color:#849EB2"
   id="stop6" />
			<stop
   offset="0.1284"
   style="stop-color:#82A1B5"
   id="stop7" />
			<stop
   offset="0.281"
   style="stop-color:#7AA8BE"
   id="stop8" />
			<stop
   offset="0.4451"
   style="stop-color:#69B3CC"
   id="stop9" />
			<stop
   offset="0.558"
   style="stop-color:#56BCD8"
   id="stop10" />
			<stop
   offset="0.7553"
   style="stop-color:#B8DEED"
   id="stop11" />
			<stop
   offset="0.9211"
   style="stop-color:#ECF6FB"
   id="stop12" />
			<stop
   offset="1"
   style="stop-color:#FFFFFF"
   id="stop13" />
		</linearGradient>
		<path
   class="st1"
   d="m 309.63,197.76 21.54,0.94 11.91,4.92 c 4.02,1.66 7.22,4.75 9.02,8.7 1.81,3.96 4.25,7.49 7.17,10.52 l -2.34,-0.1 c -14.84,-0.65 -24.96,14.82 -18.43,28.16 l 0.89,1.83 c -3.87,-1.41 -8.01,-2.2 -12.26,-2.27 -4.34,-0.07 -8.46,-1.77 -11.58,-4.79 l -9.66,-9.32 -9.21,-18.81 c -4.59,-9.37 2.52,-20.24 12.95,-19.78 z"
   id="path13"
   style="fill:url(#SVGID_1_)" />
		<circle
   class="st2"
   cx="366.12"
   cy="249.47"
   r="7.4400001"
   id="circle13" />
		<path
   class="st0"
   d="m 334.93,198.21 8.87,3.66 c 4.44,1.83 8.02,5.28 10.02,9.66 v 0 c 5.88,12.88 18.78,21.1 32.94,20.99 v 0 c 5.87,-0.05 11.32,-3.02 14.53,-7.93 v 0 c 6.59,-10.08 -0.29,-23.5 -12.32,-24.03 z"
   id="path14" />
		<path
   class="st0"
   d="m 307.34,240.36 6.9,6.66 c 3.46,3.34 8.05,5.24 12.86,5.31 v 0 c 14.16,0.23 26.86,8.76 32.42,21.78 v 0 c 2.31,5.39 1.76,11.58 -1.45,16.49 v 0 c -6.59,10.08 -21.65,9.14 -26.95,-1.67 z"
   id="path15" />
	</g>
</g>
</svg>
